<?xml version="1.0" standalone="no"?>
<!DOCTYPE svg PUBLIC "-//W3C//DTD SVG 20010904//EN"
 "http://www.w3.org/TR/2001/REC-SVG-20010904/DTD/svg10.dtd">
<svg version="1.0" xmlns="http://www.w3.org/2000/svg"
 width="1269.000000pt" height="1269.000000pt" viewBox="0 0 1269.000000 1269.000000"
 preserveAspectRatio="xMidYMid meet">
<metadata>
Created by potrace 1.11, written by Peter Selinger 2001-2013
</metadata>
<g transform="translate(0.000000,1269.000000) scale(0.100000,-0.100000)"
fill="#000000" stroke="none">
<path d="M435 12669 c-203 -30 -385 -216 -415 -424 -6 -44 -10 -628 -10 -1585
0 -1668 -2 -1591 62 -1719 56 -111 176 -210 303 -252 31 -10 217 -15 840 -19
l800 -5 1 -3820 c0 -2101 3 -3825 6 -3830 4 -7 1015 -10 2832 -9 l2826 0 0
-275 c0 -308 7 -361 62 -464 42 -79 130 -165 209 -205 129 -65 0 -62 2224 -62
1337 0 2042 4 2085 10 182 29 337 161 402 341 l23 64 3 1215 c2 833 -1 1237
-8 1285 -30 193 -180 361 -365 410 -51 13 -198 15 -1110 15 l-1050 0 -335 335
-335 335 -671 0 c-412 0 -692 -4 -725 -10 -194 -37 -362 -205 -399 -399 -6
-34 -10 -399 -10 -990 l0 -937 -2492 2 c-1371 1 -2495 2 -2498 3 -3 0 -6 1049
-6 2331 l0 2330 2498 0 2498 0 0 -442 c0 -490 3 -520 62 -631 42 -79 130 -165
209 -205 131 -66 -4 -63 2267 -60 l2057 3 64 23 c180 65 312 220 341 402 14
90 14 2401 -1 2490 -30 190 -181 357 -364 405 -51 13 -198 15 -1110 15 l-1050
0 -335 335 -335 335 -671 0 c-412 0 -692 -4 -725 -10 -137 -26 -285 -133 -344
-250 -64 -126 -59 -60 -65 -939 l-5 -805 -2488 0 c-1369 -1 -2492 1 -2496 4
-4 3 -7 377 -7 833 l0 827 946 0 c805 0 954 2 1003 15 185 48 324 187 372 372
22 86 22 2480 0 2566 -48 185 -187 324 -372 372 -49 13 -209 15 -1103 15
l-1045 0 -335 335 -335 335 -660 -1 c-363 -1 -687 -5 -720 -10z"/>
</g>
</svg>
